<?xml version="1.0" encoding="UTF-8"?>
<svg version="1.1" viewBox="0 0 100 100" xmlns="http://www.w3.org/2000/svg">
	<path d="m36.429 55c1.0714 0 2.1429-0.78125 2.1429-1.875v-6.25c0-0.9375-1.0714-1.875-2.1429-1.875h-7.1429c-1.25 0-2.1429 0.9375-2.1429 1.875v6.25c0 1.0938 0.89286 1.875 2.1429 1.875zm19.286-1.875v-6.25c0-0.9375-1.0714-1.875-2.1429-1.875h-7.1429c-1.25 0-2.1429 0.9375-2.1429 1.875v6.25c0 1.0938 0.89286 1.875 2.1429 1.875h7.1429c1.0714 0 2.1429-0.78125 2.1429-1.875zm17.143 0v-6.25c0-0.9375-1.0714-1.875-2.1429-1.875h-7.1429c-1.25 0-2.1429 0.9375-2.1429 1.875v6.25c0 1.0938 0.89286 1.875 2.1429 1.875h7.1429c1.0714 0 2.1429-0.78125 2.1429-1.875zm-17.143 15v-6.25c0-0.9375-1.0714-1.875-2.1429-1.875h-7.1429c-1.25 0-2.1429 0.9375-2.1429 1.875v6.25c0 1.0938 0.89286 1.875 2.1429 1.875h7.1429c1.0714 0 2.1429-0.78125 2.1429-1.875zm-17.143 0v-6.25c0-0.9375-1.0714-1.875-2.1429-1.875h-7.1429c-1.25 0-2.1429 0.9375-2.1429 1.875v6.25c0 1.0938 0.89286 1.875 2.1429 1.875h7.1429c1.0714 0 2.1429-0.78125 2.1429-1.875zm34.286 0v-6.25c0-0.9375-1.0714-1.875-2.1429-1.875h-7.1429c-1.25 0-2.1429 0.9375-2.1429 1.875v6.25c0 1.0938 0.89286 1.875 2.1429 1.875h7.1429c1.0714 0 2.1429-0.78125 2.1429-1.875zm17.143-40.625c0-4.0625-3.9286-7.5-8.5714-7.5h-8.5714v-8.125c0-0.9375-1.0714-1.875-2.1429-1.875h-7.1429c-1.25 0-2.1429 0.9375-2.1429 1.875v8.125h-22.857v-8.125c0-0.9375-1.0714-1.875-2.1429-1.875h-7.1429c-1.25 0-2.1429 0.9375-2.1429 1.875v8.125h-8.5714c-4.8214 0-8.5714 3.4375-8.5714 7.5v55c0 4.2188 3.75 7.5 8.5714 7.5h62.857c4.6429 0 8.5714-3.2812 8.5714-7.5zm-8.5714 54.062c0 0.625-0.53571 0.9375-1.0714 0.9375h-60.714c-0.71429 0-1.0714-0.3125-1.0714-0.9375v-46.562h62.857z" stroke-width="2.1381"/>
</svg>
