<?xml version="1.0" encoding="UTF-8"?>
<svg version="1.1" viewBox="0 0 100 100" xmlns="http://www.w3.org/2000/svg">
	<path d="m15 15v81.667h70v-81.667h-23.333q0-2.4154-0.91146-4.5117-0.91146-2.1419-2.5065-3.737-1.5951-1.5951-3.737-2.5065-2.0964-0.91146-4.5117-0.91146t-4.5573 0.91146q-2.0964 0.91146-3.6914 2.5065-1.5951 1.5951-2.5065 3.737-0.91146 2.0964-0.91146 4.5117zm52.5 11.667h-35v-5.8333h11.667v-5.8333q0-1.2305 0.45573-2.2786 0.45573-1.0482 1.2305-1.8229 0.82031-0.82031 1.8685-1.276 1.0482-0.45573 2.2786-0.45573t2.2786 0.45573q1.0482 0.45573 1.8229 1.276 0.82031 0.77474 1.276 1.8229 0.45573 1.0482 0.45573 2.2786v5.8333h11.667zm-46.667-5.8333h5.8333v11.667h46.667v-11.667h5.8333v70h-58.333zm40.833 23.333h-35v5.8333h35zm0 17.5h-35v5.8333h35zm0 17.5h-35v5.8333h35zm11.667-35h-5.8333v5.8333h5.8333zm0 17.5h-5.8333v5.8333h5.8333zm0 17.5h-5.8333v5.8333h5.8333z" stroke-width="2.3333"/>
</svg>
