<?xml version="1.0" encoding="UTF-8"?>
<svg version="1.1" viewBox="0 0 100 100" xmlns="http://www.w3.org/2000/svg">
	<path d="m81.429 10h-62.857c-4.8214 0-8.5714 3.9286-8.5714 8.5714v62.857c0 4.8214 3.75 8.5714 8.5714 8.5714h62.857c4.6429 0 8.5714-3.75 8.5714-8.5714v-62.857c0-4.6429-3.9286-8.5714-8.5714-8.5714zm-39.643 41.25c-16.25-11.786-16.071-11.786-20.357-15.179v-4.6429c0-2.3214 1.7857-4.2857 4.2857-4.2857h48.571c2.3214 0 4.2857 1.9643 4.2857 4.2857v4.6429c-4.4643 3.3929-4.2857 3.3929-20.536 15.179-1.7857 1.25-5.5357 4.6429-8.0357 4.4643-2.6786 0.17857-6.4286-3.2143-8.2143-4.4643zm36.786-8.0357v25.357c0 2.5-1.9643 4.2857-4.2857 4.2857h-48.571c-2.5 0-4.2857-1.7857-4.2857-4.2857v-25.357c2.3214 1.9643 5.8929 4.6429 16.964 12.5 2.5 1.9643 6.7857 5.8929 11.429 5.7143 4.8214 0.17858 9.2857-3.9286 11.607-5.7143 11.071-7.8571 14.643-10.536 17.143-12.5z" stroke-width="2.2857"/>
</svg>
