<?xml version="1.0" encoding="UTF-8"?>
<svg version="1.1" viewBox="0 0 100 100" xmlns="http://www.w3.org/2000/svg">
	<path d="m12.317 49.999 21.758-4.0014-11.504 8.6281c-1.2504 1.2504-0.37514 3.3762 1.5005 3.3762h27.76c-1.1254-3.2512-1.7506-6.7524-1.7506-10.379v-5.2519l-15.005-11.004c-3.0011-2.0007-7.0025-1.7506-9.6285 0.62522l-14.755 14.505c-1.5005 1.2504-0.37513 3.8764 1.6256 3.5013zm69.65 4.2515-12.63-6.2522c-2.0007-1.0004-3.2512-3.0011-3.2512-5.3769v-4.6267h8.0029l3.5013 2.876c0.75027 0.75027 1.7506 1.1254 2.751 1.1254h3.8764c1.6256 0 3.0011-0.87531 3.6263-2.1258l1.7506-3.6263c0.25009-0.50018 0.37513-1.1254 0.37513-1.7506 0-0.87531-0.25009-1.7506-0.75027-2.3759l-9.2533-12.504c-0.75027-1.0004-2.0007-1.6256-3.2512-1.6256h-29.636c-1.0004 0-1.3755 1.1254-0.75027 1.7506l7.7528 6.2522-7.5027 3.1261c-0.75027 0.37513-0.75027 1.5005 0 1.8757l7.5027 3.0011v13.63c0 9.0032 4.5016 17.381 12.004 22.383-24.509 0.87531-43.14 5.1268-54.395 7.6277-1.0004 0.25009-1.6256 1.1254-1.6256 2.2508s0.87531 2.1258 2.1258 2.1258h62.397c8.0029 0.12505 15.005-5.8771 15.381-13.755 0.37514-6.0022-2.751-11.379-8.0029-14.005zm-10.754-27.885 5.627 1.3755c-0.25009 1.3755-1.5005 2.3759-3.0011 2.2508-1.6256 0-3.2512-1.5005-2.6259-3.6263z" stroke-width="1.6006"/>
</svg>
