<?xml version="1.0" encoding="UTF-8"?>
<svg version="1.1" viewBox="0 0 100 100" xmlns="http://www.w3.org/2000/svg">
	<path d="m57.5 17.5c0-4.0625-3.4375-7.5-7.5-7.5-4.2188 0-7.5 3.4375-7.5 7.5 0 4.2188 3.2812 7.5 7.5 7.5 4.0625 0 7.5-3.2812 7.5-7.5zm-7.5 57.5c-4.2188 0-7.5 3.4375-7.5 7.5 0 4.2188 3.2812 7.5 7.5 7.5 4.0625 0 7.5-3.2812 7.5-7.5 0-4.0625-3.4375-7.5-7.5-7.5zm32.5-32.5c-4.2188 0-7.5 3.4375-7.5 7.5 0 4.2188 3.2812 7.5 7.5 7.5 4.0625 0 7.5-3.2812 7.5-7.5 0-4.0625-3.4375-7.5-7.5-7.5zm-57.5 7.5c0-4.0625-3.4375-7.5-7.5-7.5-4.2188 0-7.5 3.4375-7.5 7.5 0 4.2188 3.2812 7.5 7.5 7.5 4.0625 0 7.5-3.2812 7.5-7.5zm1.875 15.625c-4.0625 0-7.5 3.2812-7.5 7.5 0 4.0625 3.4375 7.5 7.5 7.5 4.2188 0 7.5-3.4375 7.5-7.5 0-4.2188-3.2812-7.5-7.5-7.5zm46.094 0c-4.2188 0-7.5 3.2812-7.5 7.5 0 4.0625 3.2812 7.5 7.5 7.5 4.0625 0 7.5-3.4375 7.5-7.5 0-4.2188-3.4375-7.5-7.5-7.5zm-46.094-46.094c-4.0625 0-7.5 3.4375-7.5 7.5 0 4.2188 3.4375 7.5 7.5 7.5 4.2188 0 7.5-3.2812 7.5-7.5 0-4.0625-3.2812-7.5-7.5-7.5z" stroke-width="2"/>
</svg>
