<?xml version="1.0" encoding="UTF-8"?>
<svg version="1.1" viewBox="0 0 100 100" xmlns="http://www.w3.org/2000/svg">
	<path d="m82.5 20h-65c-4.2188 0-7.5 3.4375-7.5 7.5v45c0 4.2188 3.2812 7.5 7.5 7.5h65c4.0625 0 7.5-3.2812 7.5-7.5v-45c0-4.0625-3.4375-7.5-7.5-7.5zm0 7.5v6.4062c-3.5938 2.9688-9.2188 7.3438-21.094 16.719-2.6562 2.0312-7.8125 7.0312-11.406 6.875-3.75 0.15625-8.9062-4.8438-11.562-6.875-11.875-9.375-17.5-13.75-20.938-16.719v-6.4062zm-65 45v-28.906c3.4375 2.8125 8.5938 6.875 16.25 12.969 3.4375 2.6562 9.5312 8.5938 16.25 8.4375 6.5625 0.15626 12.5-5.7812 16.094-8.4375 7.6562-6.0938 12.812-10.156 16.406-12.969v28.906z" stroke-width="2"/>
</svg>
