<?xml version="1.0" encoding="UTF-8"?>
<svg version="1.1" viewBox="0 0 100 100" xmlns="http://www.w3.org/2000/svg">
	<path d="m49.923 27.44c2.9701 0 5.7839 0.62529 8.2851 1.5632 2.1885-1.5632 3.7517-3.7517 4.6897-6.4092-3.908-1.7195-8.2851-2.6575-12.818-2.6575-4.6897 0-8.9103 0.93793-12.975 2.6575 0.93793 2.6575 2.6575 4.846 4.6897 6.4092 2.5011-0.93793 5.3149-1.5632 8.1287-1.5632zm-19.384 51.117c1.8759-1.8759 3.2828-4.0644 3.908-6.5655-5.1586-4.2207-8.5977-10.317-9.223-17.195-1.4069-0.46896-2.6575-0.62529-4.2207-0.62529-1.0943 0-2.3448 0.15633-3.4391 0.46896 0.62529 9.6919 5.6276 18.446 12.975 23.917zm35.016-6.5655c0.62529 2.5011 2.0322 4.6897 3.908 6.5655 7.3471-5.4713 12.349-14.225 12.975-23.917-1.0943-0.31264-2.3448-0.46896-3.4391-0.46896-1.5632 0-2.8138 0.15633-4.2207 0.62529-0.62529 6.8782-4.0644 12.975-9.223 17.195zm17.821-32.046c-2.8138-1.7195-5.6276-2.6575-8.5977-3.1264 0.93793-2.8138 1.5632-5.7839 1.5632-8.9103 0-6.4092-2.3448-12.506-6.4092-17.508-0.46896-0.46897-1.0943-0.46897-1.5632-0.31264-0.62529 0.31264-0.78161 0.93793-0.62529 1.5632 0.62529 2.1885 1.0943 4.0644 1.0943 6.0965 0 10.474-8.4414 19.228-18.759 19.228-10.474 0-18.759-8.754-18.759-19.228 0-1.8759 0.31264-3.908 0.93793-6.0965 0.15633-0.62529 0-1.2506-0.46896-1.5632-0.62529-0.15633-1.2506-0.15633-1.5632 0.31264-4.2207 5.0023-6.4092 11.099-6.4092 17.508 0 3.1264 0.46896 6.0965 1.5632 8.9103-2.9701 0.46896-5.9402 1.4069-8.754 3.1264-5.3149 3.1264-9.5356 8.2851-11.568 14.382-0.15633 0.62529 0 1.2506 0.46896 1.5632 0.62529 0.31264 1.2506 0.15633 1.5632-0.31264 1.5632-1.7195 2.9701-2.9701 4.6897-3.908 8.9103-5.3149 20.322-2.1885 25.637 7.0345 5.1586 9.223 2.0322 20.947-6.8782 26.262-1.7195 0.93793-3.4391 1.5632-5.6276 2.0322-0.62529 0.15633-1.0943 0.78161-1.0943 1.2506 0.15633 0.62529 0.46896 1.2506 1.0943 1.2506 6.2529 1.2506 12.662 0.15633 17.977-2.9701 2.8138-1.7195 5.1586-3.908 7.0345-6.2529 2.0322 2.3448 4.377 4.5333 7.1908 6.2529 5.3149 3.1264 11.724 4.2207 17.977 2.9701 0.62529 0 0.93793-0.62529 0.93793-1.2506 0-0.46896-0.31264-1.0943-0.93793-1.2506-2.1885-0.46897-4.0644-1.0943-5.6276-2.0322-8.9103-5.3149-12.037-17.039-6.8782-26.262 5.1586-9.223 16.726-12.349 25.637-7.0345 1.5632 0.93793 3.1264 2.1885 4.5333 3.908 0.46896 0.46896 1.0943 0.62529 1.5632 0.31264 0.62529-0.31264 0.78161-0.93793 0.62529-1.5632-2.0322-6.0965-6.2529-11.255-11.568-14.382zm-33.453 20.166c-4.0644 0-7.5034-3.4391-7.5034-7.5034 0-4.2207 3.4391-7.5034 7.5034-7.5034 4.2207 0 7.5034 3.2828 7.5034 7.5034 0 4.0644-3.2828 7.5034-7.5034 7.5034z" stroke-width="2.0009"/>
</svg>
