<?xml version="1.0" encoding="UTF-8"?>
<svg width="100" height="100" version="1.1" viewBox="0 0 26.458 26.458" xmlns="http://www.w3.org/2000/svg">
	<path d="m13.229 6.7426c-2.2618 0-4.0968 1.835-4.0968 4.0968 0 2.2618 1.835 4.0968 4.0968 4.0968s4.0968-1.835 4.0968-4.0968c0-2.2618-1.835-4.0968-4.0968-4.0968zm0 6.1452c-1.1522 0-2.0484-0.89617-2.0484-2.0484 0-1.1095 0.89617-2.0484 2.0484-2.0484 1.1095 0 2.0484 0.93884 2.0484 2.0484 0 1.1522-0.93884 2.0484-2.0484 2.0484zm0-10.242c-5.8464 0-10.583 4.7369-10.583 10.583 0 5.8464 4.7369 10.583 10.583 10.583 5.8464 0 10.583-4.7369 10.583-10.583 0-5.8464-4.7369-10.583-10.583-10.583zm0 19.118c-2.1337 0-4.0968-0.76814-5.5904-2.0484 0.64012-0.98152 1.7497-1.6643 2.9872-1.6643 0.89617 0.25605 1.7497 0.38407 2.6032 0.38407 0.81082 0 1.6643-0.12802 2.5605-0.38407 1.2376 0.04267 2.3471 0.6828 2.9872 1.6643-1.4936 1.2802-3.4567 2.0484-5.5477 2.0484zm6.9133-3.5847c-1.0242-1.3229-2.6458-2.2191-4.4808-2.2191-0.42675 0-1.1095 0.42675-2.4325 0.42675-1.3656 0-2.0484-0.42675-2.4751-0.42675-1.835 0-3.4567 0.89617-4.4808 2.2191-1.0242-1.3656-1.579-3.0726-1.579-4.9503 0-4.6942 3.7981-8.5349 8.5349-8.5349 4.6942 0 8.5349 3.8407 8.5349 8.5349 0 1.8777-0.59745 3.5847-1.6216 4.9503z" stroke-width=".54624"/>
</svg>
