<?xml version="1.0" encoding="UTF-8"?>
<svg version="1.1" viewBox="0 0 100 100" xmlns="http://www.w3.org/2000/svg">
	<path d="m55.807 10.151v2.9032c0 1.9959 1.2701 3.629 3.0846 4.1733 14.153 3.9919 24.496 16.875 24.496 32.116 0 18.508-15.06 33.386-33.386 33.386-18.508 0-33.386-14.879-33.386-33.386 0-15.242 10.161-28.124 24.314-32.116 1.8145-0.54434 3.2661-2.1774 3.2661-4.1733v-2.9032c0-2.9032-2.7217-5.0805-5.6249-4.3548-19.415 5.0805-33.749 22.862-33.568 43.91 0 24.858 20.141 44.818 44.999 44.636 24.858 0 44.999-20.141 44.999-44.999 0-20.867-14.516-38.467-33.931-43.548-2.7217-0.72579-5.262 1.4516-5.262 4.3548z" stroke-width="2.3225"/>
</svg>
